Coordinates
version=1
nRows=27
nColumns=12
inDegrees=yes

Units are S.I. units (second, meters, Newtons, ...)
Angles are in degrees

endheader
time	SC_y	SC_z	SC_x	AC_y	AC_z	AC_x	GH_y	GH_z	GH_yy	EL_x	PS_y
       0.0              -40.88          19.01          38.79           46.2         -7.503          19.08          145.5          1.672          164.3          83.94          56.25
  0.007669              -40.88           19.0          38.79           46.2         -7.502          19.08          145.5          1.678          164.3          83.95          56.25
   0.01534              -40.87           19.0          38.79          46.19         -7.501          19.08          145.4          1.685          164.3          83.96          56.26
   0.02301              -40.87           19.0          38.79          46.19         -7.501          19.08          145.4          1.692          164.3          83.96          56.26
   0.03067              -40.87          18.99          38.78          46.19           -7.5          19.07          145.3          1.699          164.2          83.97          56.26
   0.03834              -40.87          18.99          38.78          46.19         -7.499          19.07          145.3          1.707          164.2          83.98          56.27
   0.04601              -40.86          18.98          38.78          46.18         -7.498          19.07          145.2          1.715          164.2          83.99          56.27
   0.05368              -40.86          18.98          38.78          46.18         -7.497          19.06          145.1          1.724          164.2           84.0          56.28
   0.06135              -40.86          18.97          38.78          46.18         -7.495          19.06          145.1          1.733          164.1          84.01          56.28
   0.06902              -40.85          18.97          38.78          46.17         -7.494          19.06          145.0          1.744          164.1          84.02          56.29
   0.07669              -40.85          18.96          38.77          46.17         -7.493          19.05          144.9          1.755          164.0          84.04          56.29
   0.08436              -40.84          18.96          38.77          46.17         -7.491          19.05          144.8          1.766          164.0          84.05           56.3
   0.09202              -40.84          18.95          38.77          46.16          -7.49          19.04          144.7          1.779          164.0          84.07          56.31
   0.09969              -40.83          18.94          38.77          46.16         -7.488          19.04          144.6          1.793          163.9          84.08          56.31
    0.1074              -40.83          18.93          38.76          46.15         -7.486          19.03          144.5          1.808          163.8           84.1          56.32
     0.115              -40.82          18.92          38.76          46.15         -7.484          19.03          144.4          1.824          163.8          84.12          56.33
    0.1227              -40.81          18.91          38.76          46.14         -7.482          19.02          144.3          1.841          163.7          84.14          56.34
    0.1304              -40.81           18.9          38.75          46.14          -7.48          19.01          144.2           1.86          163.7          84.16          56.35
     0.138               -40.8          18.89          38.75          46.13         -7.477           19.0          144.0          1.881          163.6          84.19          56.36
    0.1457              -40.79          18.88          38.75          46.12         -7.474          18.99          143.9          1.904          163.5          84.21          56.37
    0.1534              -40.78          18.87          38.74          46.11         -7.471          18.98          143.7          1.929          163.4          84.24          56.39
     0.161              -40.77          18.85          38.74          46.11         -7.468          18.97          143.5          1.956          163.3          84.27           56.4
    0.1687              -40.76          18.83          38.73           46.1         -7.464          18.96          143.3          1.987          163.2          84.31          56.42
    0.1764              -40.75          18.82          38.72          46.09          -7.46          18.95          143.0           2.02          163.1          84.35          56.44
     0.184              -40.73          18.79          38.72          46.07         -7.456          18.94          142.8          2.058          162.9          84.39          56.46
    0.1917              -40.72          18.77          38.71          46.06          -7.45          18.92          142.5            2.1          162.8          84.44          56.48
    0.1994               -40.7          18.75           38.7          46.04         -7.445           18.9          142.1          2.146          162.6           84.5           56.5
